<svg width="79" height="80" viewBox="0 0 79 80" fill="none" xmlns="http://www.w3.org/2000/svg">
<g clip-path="url(#clip0_865_24)">
<path d="M40.1665 80C39.9443 80 39.7222 80 39.5 79.9928C31.9868 80.1087 25.6863 78.0838 21.7676 74.255C19.608 72.1467 18.184 69.5531 17.503 66.5103C12.4881 65.1483 8.9882 63.0618 6.41702 60.106C0.990596 53.8791 0 44.269 0 27.5844V0.00726763H1.45676C1.96662 0.00726763 2.46192 0.00726763 2.94265 0.00364526C8.27803 -0.0180889 12.1312 -0.0289559 14.8626 2.67695C19.9503 7.71929 19.9503 21.4227 19.9503 62.0983C19.9503 62.8119 19.9867 63.5038 20.0632 64.1739C24.9033 65.2389 31.211 65.7098 39.5 65.7098C47.789 65.7098 54.0931 65.2389 58.9368 64.1739C59.0133 63.5074 59.0497 62.8155 59.0497 62.0983C59.0497 21.4227 59.0497 7.71929 64.1374 2.67695C66.8688 -0.0289559 70.722 -0.0180889 76.0574 0.00364526C76.5381 0.00364526 77.0334 0.00364526 77.5432 0.00364526H79V27.5844C79 44.269 78.0094 53.8791 72.583 60.1096C70.0082 63.0655 66.5119 65.1483 61.4971 66.5139C60.816 69.5567 59.3884 72.1504 57.2324 74.2586C53.4302 77.9751 47.3883 80.0036 40.1665 80.0036V80ZM20.7297 67.2493C21.367 69.1583 22.394 70.8101 23.8071 72.1866C27.1685 75.4721 32.7261 77.2144 39.4709 77.0949H39.5219C46.2594 77.218 51.8242 75.4721 55.1856 72.1866C56.5987 70.8065 57.6257 69.1547 58.263 67.2493C53.3647 68.1839 47.239 68.6004 39.4964 68.6004C31.7537 68.6004 25.6244 68.1839 20.726 67.2493H20.7297ZM2.91352 2.90154V27.5844C2.91352 43.1968 3.82399 52.7019 8.61672 58.2115C10.6016 60.4936 13.2966 62.1852 17.0732 63.377C17.0477 62.9568 17.0368 62.5293 17.0368 62.0947C17.0368 24.4872 17.0368 8.92192 12.8049 4.72721C10.9293 2.86894 7.75724 2.87981 2.94994 2.89792H2.90987L2.91352 2.90154ZM74.7281 2.90154C70.6528 2.90154 67.8886 3.05006 66.1915 4.73446C61.9596 8.92554 61.9596 24.4945 61.9596 62.1019C61.9596 62.5366 61.9486 62.964 61.9232 63.3842C65.6998 62.1925 68.3948 60.4972 70.3796 58.2187C75.176 52.7091 76.0828 43.204 76.0828 27.5916V2.90154H76.0428C75.5912 2.90154 75.1505 2.90154 74.7281 2.90154Z" fill="white"/>
</g>
<defs>
<clipPath id="clip0_865_24">
<rect width="79" height="80" fill="white"/>
</clipPath>
</defs>
</svg>
